<svg width="32" height="32" viewBox="0 0 32 32" fill="none" xmlns="http://www.w3.org/2000/svg">
<path fill-rule="evenodd" clip-rule="evenodd" d="M10.5598 2.66675H21.4532C26.1598 2.66675 29.3332 5.69475 29.3332 10.2134V21.7734C29.3332 26.2934 26.1598 29.3334 21.4532 29.3334H10.5598C5.83984 29.3334 2.6665 26.2934 2.6665 21.7734V10.2134C2.6665 5.69475 5.83984 2.66675 10.5598 2.66675ZM12.9732 17.0001H21.4398C21.9998 17.0001 22.4398 16.5467 22.4398 16.0001C22.4398 15.4401 21.9998 15.0001 21.4398 15.0001H12.9732L16.2798 11.7067C16.4665 11.5201 16.5732 11.2534 16.5732 11.0001C16.5732 10.7481 16.4665 10.4934 16.2798 10.2934C15.8932 9.90675 15.2532 9.90675 14.8665 10.2934L9.83984 15.2934C9.4665 15.6667 9.4665 16.3334 9.83984 16.7067L14.8665 21.7067C15.2532 22.0934 15.8932 22.0934 16.2798 21.7067C16.6665 21.3067 16.6665 20.6801 16.2798 20.2801L12.9732 17.0001Z" fill="#3359DF"/>
</svg>
